<?xml version="1.0" encoding="utf-8"?>
<!-- Generator: Adobe Illustrator 23.0.1, SVG Export Plug-In . SVG Version: 6.00 Build 0)  -->
<svg version="1.1" id="Layer_1" xmlns="http://www.w3.org/2000/svg" xmlns:xlink="http://www.w3.org/1999/xlink" x="0px" y="0px"
	 viewBox="0 0 1000 1000" style="enable-background:new 0 0 1000 1000;" xml:space="preserve">
<style type="text/css">
	.st0{fill:#C12867;}
	.st1{fill:#3F4A9F;}
	.st2{fill:#72429A;}
	.st3{fill:#78943B;}
	.st4{fill:#CF252B;}
	.st5{fill:#FFFFFF;}
	.st6{fill:none;stroke:#FFFFFF;stroke-width:9.700000e-02;}
</style>
<g transform="matrix(1.750568 0 0 1.750568 -73.527298 -246.88563)">
	<g>
		<path id="a" class="st0" d="M453.3,510.8l-97.6-0.3l-48.5-84.7l49-84.4l97.6,0.3l48.5,84.7L453.3,510.8z"/>
	</g>
	<g>
		<path class="st1" d="M299.1,599.3l-97.6-0.3l-48.5-84.7l49-84.4l97.6,0.3l48.5,84.7L299.1,599.3z"/>
	</g>
	<g>
		<path class="st2" d="M452.4,688.3l-97.6-0.3l-48.5-84.7l49-84.4l97.6,0.3l48.5,84.7L452.4,688.3z"/>
	</g>
	<g>
		<path class="st3" d="M299.9,423.1l-97.6-0.3l-48.5-84.7l49-84.4l97.6,0.3l48.5,84.7L299.9,423.1z"/>
	</g>
	<g>
		<path class="st4" d="M453.2,334.4l-97.6-0.3l-48.5-84.7l49-84.4l97.6,0.3l48.5,84.7L453.2,334.4z"/>
	</g>
	<g>
		<circle class="st5" cx="404.7" cy="249.8" r="14.8"/>
		<circle class="st5" cx="251.4" cy="338.4" r="14.8"/>
		<circle class="st5" cx="250.6" cy="514.7" r="14.8"/>
		<circle class="st5" cx="403.8" cy="603.6" r="14.8"/>
	</g>
	<path class="st6" d="M395.4,253.9l-134.3,76.9 M250.8,349.9l0.5,154.7 M261.4,521.2l133,79.1"/>
	<circle class="st5" cx="404.8" cy="426.2" r="14.8"/>
	<path class="st6" d="M404.3,260.2l0.5,154.7 M405,437.6l0.5,154.7 M395.6,432.2l-134.3,76.9 M261.9,345.4l133,79.1"/>
</g>
</svg>
